<?xml version="1.0" encoding="UTF-8"?>
<svg version="1.1" xmlns="http://www.w3.org/2000/svg" width="585" height="570">
<path d="M0 0 C1.2655351 -0.00384115 2.53107021 -0.00768229 3.83495486 -0.01163983 C5.231784 -0.01085969 6.6286131 -0.00998092 8.02544212 -0.00901413 C9.51524665 -0.01159926 11.00505049 -0.01461283 12.49485338 -0.01801753 C16.58550313 -0.0260735 20.67613532 -0.02787632 24.76679206 -0.028615 C29.18005006 -0.030468 33.593299 -0.0380166 38.00655174 -0.04475021 C47.65545353 -0.05832421 57.30435115 -0.06435683 66.9532609 -0.06876087 C72.98005225 -0.07152494 79.00684201 -0.0757626 85.03363228 -0.08026505 C101.72562179 -0.09245661 118.41761002 -0.10275607 135.10960388 -0.10614014 C136.17764968 -0.1063597 137.24569549 -0.10657927 138.34610631 -0.10680549 C139.41668337 -0.10702377 140.48726043 -0.10724204 141.59027922 -0.10746694 C143.75961534 -0.1079104 145.92895146 -0.10835696 148.09828758 -0.10880661 C149.1743494 -0.10902804 150.25041121 -0.10924947 151.35908096 -0.10947761 C168.7908339 -0.1134247 186.22254502 -0.13087652 203.65428181 -0.15416613 C221.55844785 -0.17789351 239.46259291 -0.19034262 257.36677492 -0.19150805 C267.41635693 -0.19242405 277.46588445 -0.19815728 287.51545143 -0.21632767 C296.07374488 -0.23174736 304.63196699 -0.23683809 313.19027169 -0.22858956 C317.55427801 -0.22468966 321.91814074 -0.22558037 326.28212929 -0.23964691 C330.28321586 -0.25242539 334.28405152 -0.25115392 338.28513794 -0.2390562 C339.72661854 -0.23710601 341.16811715 -0.24014605 342.60957249 -0.24890056 C359.95629162 -0.34751824 373.64793164 3.63044703 386.41908836 15.71345901 C395.19069119 25.25585295 399.7584853 37.63611579 399.77317238 50.48968315 C399.77701352 51.75521825 399.78085467 53.02075336 399.78481221 54.32463801 C399.78403206 55.72146715 399.7831533 57.11829625 399.78218651 58.51512527 C399.78477163 60.00492981 399.78778521 61.49473364 399.79118991 62.98453653 C399.79924588 67.07518628 399.8010487 71.16581847 399.80178738 75.25647521 C399.80364038 79.66973321 399.81118898 84.08298215 399.81792259 88.49623489 C399.83149658 98.14513668 399.83752921 107.79403431 399.84193325 117.44294405 C399.84469732 123.4697354 399.84893498 129.49652516 399.85343742 135.52331543 C399.86562899 152.21530494 399.87592845 168.90729317 399.87931252 185.59928703 C399.87953208 186.66733284 399.87975165 187.73537864 399.87997787 188.83578946 C399.88019614 189.90636652 399.88041442 190.97694358 399.88063931 192.07996237 C399.88108278 194.24929849 399.88152934 196.41863461 399.88197899 198.58797073 C399.88220042 199.66403255 399.88242185 200.74009436 399.88264999 201.84876411 C399.88659708 219.28051705 399.9040489 236.71222817 399.92733851 254.14396496 C399.95106588 272.048131 399.963515 289.95227606 399.96468043 307.85645807 C399.96559643 317.90604008 399.97132966 327.9555676 399.98950005 338.00513458 C400.00491974 346.56342803 400.01001047 355.12165014 400.00176194 363.67995484 C399.99786204 368.04396116 399.99875274 372.40782389 400.01281929 376.77181244 C400.02559776 380.77289901 400.02432629 384.77373467 400.01222858 388.77482109 C400.01027839 390.21630169 400.01331843 391.6578003 400.02207294 393.09925564 C400.12069061 410.44597477 396.14272535 424.13761479 384.05971336 436.90877151 C374.51731943 445.68037434 362.13705659 450.24816845 349.28348923 450.26285553 C348.01795412 450.26669667 346.75241902 450.27053782 345.44853437 450.27449536 C344.05170522 450.27371522 342.65487613 450.27283645 341.2580471 450.27186966 C339.76824257 450.27445479 338.27843873 450.27746836 336.78863585 450.28087306 C332.6979861 450.28892903 328.60735391 450.29073185 324.51669717 450.29147053 C320.10343917 450.29332353 315.69019023 450.30087213 311.27693748 450.30760574 C301.6280357 450.32117974 291.97913807 450.32721236 282.33022833 450.3316164 C276.30343697 450.33438047 270.27664722 450.33861813 264.24985695 450.34312057 C247.55786744 450.35531214 230.86587921 450.3656116 214.17388535 450.36899567 C213.10583954 450.36921523 212.03779374 450.3694348 210.93738291 450.36966102 C209.86680585 450.3698793 208.79622879 450.37009757 207.69321001 450.37032247 C205.52387388 450.37076593 203.35453776 450.37121249 201.18520164 450.37166214 C199.57110893 450.37199428 199.57110893 450.37199428 197.92440827 450.37233314 C180.49265533 450.37628023 163.06094421 450.39373205 145.62920742 450.41702166 C127.72504138 450.44074904 109.82089632 450.45319815 91.91671431 450.45436358 C81.8671323 450.45527958 71.81760478 450.46101281 61.7680378 450.4791832 C53.20974435 450.49460289 44.65152224 450.49969362 36.09321754 450.49144509 C31.72921122 450.48754519 27.36534848 450.4884359 23.00135994 450.50250244 C19.00027337 450.51528092 14.99943771 450.51400945 10.99835129 450.50191173 C9.55687069 450.49996154 8.11537208 450.50300158 6.67391674 450.51175609 C-10.6728024 450.61037377 -24.36444242 446.6324085 -37.13559914 434.54939651 C-45.90720196 425.00700258 -50.47499607 412.62673974 -50.48968315 399.77317238 C-50.4935243 398.50763728 -50.49736544 397.24210217 -50.50132298 395.93821752 C-50.50054284 394.54138838 -50.49966407 393.14455928 -50.49869728 391.74773026 C-50.50128241 390.25792572 -50.50429598 388.76812188 -50.50770068 387.278319 C-50.51575665 383.18766925 -50.51755947 379.09703706 -50.51829815 375.00638032 C-50.52015116 370.59312232 -50.52769975 366.17987338 -50.53443336 361.76662064 C-50.54800736 352.11771885 -50.55403998 342.46882122 -50.55844402 332.81991148 C-50.56120809 326.79312013 -50.56544575 320.76633037 -50.5699482 314.7395401 C-50.58213977 298.04755059 -50.59243922 281.35556236 -50.59582329 264.6635685 C-50.59604285 263.59552269 -50.59626242 262.52747689 -50.59648864 261.42706607 C-50.59670692 260.35648901 -50.5969252 259.28591195 -50.59715009 258.18289316 C-50.59759355 256.01355704 -50.59804011 253.84422092 -50.59848976 251.6748848 C-50.59871119 250.59882298 -50.59893262 249.52276117 -50.59916076 248.41409142 C-50.60310785 230.98233848 -50.62055967 213.55062736 -50.64384928 196.11889057 C-50.66757666 178.21472453 -50.68002577 160.31057947 -50.68119121 142.40639746 C-50.6821072 132.35681545 -50.68784044 122.30728793 -50.70601082 112.25772095 C-50.72143051 103.6994275 -50.72652124 95.14120539 -50.71827272 86.58290069 C-50.71437281 82.21889437 -50.71526352 77.85503164 -50.72933006 73.49104309 C-50.74210854 69.48995652 -50.74083707 65.48912086 -50.72873935 61.48803444 C-50.72678916 60.04655384 -50.7298292 58.60505523 -50.73858371 57.16359989 C-50.83720139 39.81688076 -46.85923612 26.12524074 -34.77622414 13.35408401 C-25.2338302 4.58248119 -12.85356736 0.01468708 0 0 Z M47.64174461 100.13142776 C48.27424126 101.24439728 48.9067379 102.35736679 49.55840111 103.50406265 C49.91418047 104.130108 50.26995983 104.75615335 50.63652039 105.40116978 C51.72810586 107.28007841 52.89997887 109.0641902 54.16518211 110.83064651 C54.62118797 111.47147171 55.07719383 112.11229691 55.54701805 112.77254105 C56.03202782 113.44784866 56.51703758 114.12315628 57.01674461 114.81892776 C58.0926756 116.33035463 59.16817919 117.8420858 60.24330711 119.35408401 C60.80179344 120.13799515 61.36027977 120.92190628 61.93568993 121.7295723 C64.77367724 125.72501007 67.58307921 129.74034716 70.39174461 133.75642776 C71.26065331 134.9981575 71.26065331 134.9981575 72.14711571 136.26497269 C77.33690193 143.68612651 82.50650652 151.12127674 87.67543602 158.55696487 C93.73938751 167.27783253 99.82815941 175.98115201 105.92397118 184.67976761 C108.83136552 188.82929205 111.73642487 192.98045066 114.64174461 197.13142776 C115.79928577 198.78508125 116.95683786 200.43872707 118.11440086 202.09236526 C126.29018211 213.77205276 134.46596336 225.45174026 142.64174461 237.13142776 C138.38452305 246.0104072 130.72005448 253.20067137 124.11049461 260.38142776 C121.69796358 263.06880411 119.40918251 265.8210822 117.14174461 268.63142776 C113.30339047 273.38882445 109.24552103 277.88926695 105.10658836 282.38533401 C102.71467164 285.05017943 100.44919578 287.77974602 98.20424461 290.56892776 C94.54668197 295.10378938 90.69557434 299.38678959 86.73012352 303.64851761 C82.92775655 307.75922053 79.39903869 312.0541836 75.88783836 316.41658401 C73.55343872 319.23816272 71.12183863 321.93733488 68.64174461 324.63142776 C64.49919091 329.13364504 60.59843449 333.77978125 56.75893211 338.54158401 C54.20815928 341.66180983 51.55227041 344.67528799 48.85658836 347.67049026 C47.53518208 348.94290219 47.53518208 348.94290219 47.64174461 350.13142776 C62.78111407 351.81631523 62.78111407 351.81631523 77.05580711 348.29158401 C79.30721318 345.7004203 80.95317248 343.11643916 82.64174461 340.13142776 C84.08967215 338.2938761 85.56993435 336.48140442 87.07924461 334.69392776 C87.82045555 333.77740433 88.56166649 332.86088089 89.32533836 331.91658401 C92.48266556 328.12033732 95.82975053 324.51359418 99.17299461 320.88142776 C101.58552565 318.19405142 103.87430672 315.44177333 106.14174461 312.63142776 C109.97893492 307.87547358 114.03559562 303.37637975 118.17299461 298.88142776 C120.58552565 296.19405142 122.87430672 293.44177333 125.14174461 290.63142776 C128.1952314 286.84682442 131.34842762 283.2093524 134.64174461 279.63142776 C138.80388706 275.10735989 142.72882981 270.44013401 146.59096336 265.65877151 C149.21300965 262.42741161 151.91650669 259.27593306 154.64174461 256.13142776 C158.58364401 259.83442417 161.5884019 263.70120217 164.57924461 268.19392776 C165.54969032 269.62813664 166.52108985 271.06170045 167.49330711 272.49470901 C168.00409813 273.24961624 168.51488914 274.00452347 169.04115868 274.78230667 C171.80729315 278.84206047 174.63188365 282.86065376 177.45424461 286.88142776 C178.04262108 287.72068802 178.63099754 288.55994827 179.2372036 289.42464066 C180.43903845 291.1389148 181.64110648 292.85302549 182.84340477 294.56697464 C185.77899443 298.75315898 188.71020864 302.94240418 191.64174461 307.13142776 C195.19918373 312.21426879 198.75725229 317.29666536 202.31752586 322.37752151 C202.92660789 323.24699417 203.53568993 324.11646683 204.16322899 325.01228714 C205.30356442 326.6400942 206.44416085 328.26771847 207.58510399 329.89509964 C208.38077782 331.03108597 208.38077782 331.03108597 209.19252586 332.19002151 C209.98600929 333.27582504 209.98600929 333.27582504 210.79552269 334.383564 C212.64174461 337.13142776 212.64174461 337.13142776 214.29350853 340.41310501 C217.71112604 346.83594833 217.71112604 346.83594833 223.51613235 350.85739708 C229.03917602 351.97424284 234.64239018 351.62304272 240.23940086 351.40095901 C242.04251001 351.37667965 243.84570555 351.35819005 245.6489315 351.34521866 C250.37115794 351.29582746 255.08809688 351.16838379 259.80824852 351.02406693 C264.63418092 350.8905218 269.46097729 350.83159083 274.28822899 350.76619339 C283.74171098 350.62721292 293.19128645 350.4056723 302.64174461 350.13142776 C302.01303459 349.02413818 301.38432457 347.9168486 300.73656273 346.77600479 C300.38291334 346.1531544 300.02926395 345.53030401 299.66489792 344.88857937 C298.43443495 342.77539655 297.09226813 340.77238637 295.68080711 338.77595901 C295.13424461 337.99929886 294.58768211 337.2226387 294.02455711 336.42244339 C293.44447899 335.60453323 292.86440086 334.78662308 292.26674461 333.94392776 C291.00885097 332.15882869 289.75104079 330.3736708 288.49330711 328.58845901 C287.53279442 327.22841751 287.53279442 327.22841751 286.55287743 325.84090042 C283.57055126 321.6127635 280.60661958 317.37181054 277.64174461 313.13142776 C276.47517639 311.46469219 275.30850946 309.7980257 274.14174461 308.13142776 C267.14174461 298.13142776 260.14174461 288.13142776 253.14174461 278.13142776 C252.56440575 277.30666946 251.98706688 276.48191116 251.39223289 275.63216019 C250.22389494 273.96308269 249.05560077 272.29397455 247.88735008 270.62483597 C244.99660973 266.49480439 242.10514607 262.3652833 239.21205711 258.23689651 C224.90478701 237.81709258 224.90478701 237.81709258 218.43178368 228.45686722 C215.372273 224.03384618 212.29462947 219.63274042 209.11440086 215.29549026 C208.58677147 214.56426956 208.05914207 213.83304886 207.51552391 213.07966995 C206.546146 211.73874191 205.56273967 210.4077969 204.56288719 209.08943558 C201.53380357 204.85696961 201.53380357 204.85696961 202.02065086 201.58455276 C204.11468502 198.41574927 206.56673039 195.71904298 209.20424461 193.00642776 C213.85146464 188.10898351 218.20172516 183.0783834 222.43080711 177.81111526 C224.75109412 174.99889462 227.17245596 172.31345514 229.64174461 169.63142776 C232.9350616 166.05350313 236.08825783 162.41603111 239.14174461 158.63142776 C242.97893492 153.87547358 247.03559562 149.37637975 251.17299461 144.88142776 C253.58552565 142.19405142 255.87430672 139.44177333 258.14174461 136.63142776 C261.1952314 132.84682442 264.34842762 129.2093524 267.64174461 125.63142776 C271.78429832 121.12921049 275.68505474 116.48307428 279.52455711 111.72127151 C282.07532995 108.6010457 284.73121882 105.58756754 287.42690086 102.59236526 C288.74830714 101.31995334 288.74830714 101.31995334 288.64174461 100.13142776 C284.62166934 99.92694098 280.60293998 99.80340088 276.57924461 99.69392776 C275.44551414 99.63527542 274.31178368 99.57662308 273.14369774 99.51619339 C266.99046571 99.29925105 266.99046571 99.29925105 261.42275047 101.53621292 C259.63009603 103.30361871 258.12981152 105.10364198 256.64174461 107.13142776 C255.8824868 108.02345901 255.12322899 108.91549026 254.34096336 109.83455276 C253.67709618 110.67502151 253.01322899 111.51549026 252.32924461 112.38142776 C249.21462081 116.25223358 246.00841102 119.97768128 242.64174461 123.63142776 C239.34842762 127.2093524 236.1952314 130.84682442 233.14174461 134.63142776 C229.30339047 139.38882445 225.24552103 143.88926695 221.10658836 148.38533401 C218.71467164 151.05017943 216.44919578 153.77974602 214.20424461 156.56892776 C210.55269185 161.09633798 206.71112347 165.37575769 202.74770164 169.62654495 C198.75404868 173.93737826 195.06596658 178.43968969 191.41908836 183.04939651 C189.64174461 185.13142776 189.64174461 185.13142776 187.64174461 186.13142776 C187.41358055 185.44693558 187.18541649 184.76244339 186.95033836 184.05720901 C185.33011993 180.43469078 183.09169105 177.45743452 180.70424461 174.31892776 C176.80367779 169.09698373 173.00034502 163.82979171 169.32924461 158.44392776 C165.20096176 152.3957035 161.03287949 146.37756697 156.82924461 140.38142776 C156.24546043 139.54861282 155.66167625 138.71579788 155.06020164 137.85774612 C153.86392336 136.15165112 152.66746983 134.44567898 151.47084618 132.7398262 C148.37904407 128.33074802 145.29188892 123.9184181 142.20424461 119.50642776 C139.78981356 116.0543415 139.78981356 116.0543415 137.32654381 112.63716507 C135.64174461 110.13142776 135.64174461 110.13142776 134.43968773 107.52431107 C132.81354891 104.36826117 131.39251513 102.40331854 128.64174461 100.13142776 C122.50824304 98.70190395 116.50245409 98.96486236 110.23940086 99.15486526 C108.43340543 99.17353292 106.62735911 99.18775981 104.82129478 99.19774246 C100.08361322 99.2357988 95.34903203 99.33390721 90.61256981 99.44478226 C85.77311204 99.54736048 80.93314965 99.59281042 76.09291649 99.64314651 C66.60783542 99.75016986 57.12504849 99.92067812 47.64174461 100.13142776 Z " fill="#F4EDE0" transform="translate(118.35825538635254,59.86857223510742)"/>
<path d="M0 0 C26.70330852 -3.63186374 26.70330852 -3.63186374 34.89257812 1.98339844 C39.8562473 7.29636285 43.17293154 13.57313088 46.43847656 20.02539062 C48.63260656 24.20507791 51.31701731 27.90578879 54.125 31.6875 C55.09211484 33.04694425 56.05564394 34.40894633 57.015625 35.7734375 C57.49837891 36.45631836 57.98113281 37.13919922 58.47851562 37.84277344 C64.27640984 46.06327942 70.02674738 54.31742551 75.79101562 62.56152344 C81.8448852 71.21888774 87.90229521 79.87343363 94 88.5 C100.10075439 97.1308807 106.16098513 105.78989054 112.21777344 114.45166016 C115.14376732 118.63543058 118.07195555 122.81766454 121 127 C124.52455566 132.03437511 128.04860531 137.0691005 131.5703125 142.10546875 C137.51239782 150.60160829 143.46599375 159.08914376 149.45263672 167.55395508 C152.17161881 171.40110239 154.88032528 175.25515015 157.578125 179.1171875 C158.1851123 179.98609619 158.79209961 180.85500488 159.41748047 181.75024414 C160.6256047 183.48066561 161.83297913 185.21161084 163.03955078 186.94311523 C166.83649346 192.3797683 170.71328142 197.73598513 174.7421875 203.00390625 C176 205 176 205 176 208 C171.87498006 208.24918801 167.75292401 208.42951206 163.62207031 208.54931641 C162.22090307 208.59928901 160.82024911 208.66730483 159.42089844 208.75439453 C147.9118092 209.45216385 147.9118092 209.45216385 143.51416016 206.11181641 C141.40826919 203.51801885 139.70526697 200.87149039 138 198 C136.74746656 196.22432661 135.48434826 194.45607399 134.2109375 192.6953125 C132.9287941 190.84095509 131.6502588 188.98409873 130.375 187.125 C128.96903217 185.08964881 127.56277694 183.05449611 126.15625 181.01953125 C125.45886719 180.00842285 124.76148438 178.99731445 124.04296875 177.95556641 C121.00563113 173.56144484 117.94184237 169.18605742 114.875 164.8125 C113.72913472 163.17710572 112.58330131 161.5416891 111.4375 159.90625 C110.87289062 159.10058594 110.30828125 158.29492188 109.7265625 157.46484375 C107.9622998 154.94617913 106.19966774 152.42638072 104.4375 149.90625 C98.97370231 142.09324354 93.50311048 134.28537982 88 126.5 C80.69956312 116.17190025 73.45641484 105.80380377 66.20898438 95.43847656 C60.1551148 86.78111226 54.09770479 78.12656637 48 69.5 C41.89924561 60.8691193 35.83901487 52.21010946 29.78222656 43.54833984 C27.43659859 40.19441317 25.08954663 36.84148476 22.7421875 33.48876953 C21.58819223 31.84025107 20.4345418 30.19149115 19.28125 28.54248047 C16.19737905 24.13383577 13.10688184 19.73000835 10.0078125 15.33203125 C9.358125 14.40841797 8.7084375 13.48480469 8.0390625 12.53320312 C6.78314885 10.74801158 5.52539671 8.96411173 4.265625 7.18164062 C3.70617187 6.38564453 3.14671875 5.58964844 2.5703125 4.76953125 C2.07289551 4.06417236 1.57547852 3.35881348 1.06298828 2.63208008 C0 1 0 1 0 0 Z " fill="#F4EDE0" transform="translate(205,181)"/>
</svg>
